<svg xmlns="http://www.w3.org/2000/svg" viewBox="0 0 512 512">
  <rect width="512" height="512" rx="96" fill="#c7c7c7"/>
  <rect x="48" y="48" width="416" height="416" rx="64" fill="#e9e9e9" stroke="#8fb8c8" stroke-width="12"/>
  <path d="M180 160c28-20 59-34 97-34 18 0 36 5 50 15-14 8-29 15-44 20 28 10 45 28 53 56-18-4-35-10-52-19 5 17 6 34 3 51-20-15-33-35-38-60-10 52-41 95-94 130l-22-24c40-30 64-63 71-100-15 20-36 38-62 52l-15-30c26-13 47-29 64-49-16 7-34 12-52 13l6-33c23-2 44-8 62-19-16-2-31-8-45-18z" fill="#8f4200"/>
  <circle cx="302" cy="151" r="8" fill="#111"/>
  <path d="M128 380h256" stroke="#ffe600" stroke-width="18" stroke-linecap="round" stroke-dasharray="10 18"/>
  <path d="M128 332h256" stroke="#ffe600" stroke-width="18" stroke-linecap="round" stroke-dasharray="10 18"/>
</svg>
